<?xml version="1.0" encoding="UTF-8"?>
<svg version="1.1" xmlns="http://www.w3.org/2000/svg" width="1024" height="1024">
<path d="M0 0 C4.40988639 3.35671883 8.22491715 7.27987193 12.10119629 11.22805786 C13.42936371 12.56259254 13.42936371 12.56259254 14.78436279 13.92408752 C17.11570731 16.26928307 19.440403 18.6208043 21.76190186 20.97573853 C24.12081191 23.36542625 26.48829568 25.74658625 28.85510254 28.12844849 C33.06375065 32.36674119 37.26626118 36.61098238 41.46044922 40.86358643 C43.08599702 42.50291646 44.72643346 44.12412802 46.37561035 45.73953247 C49.11426665 48.55274325 50.39778152 50.04488741 50.55432129 54.03665161 C49.14978116 58.79648206 46.85079125 60.86963695 43.24182129 64.14993286 C41.34261893 65.73368122 41.34261893 65.73368122 40.42932129 67.84915161 C39.76932129 67.84915161 39.10932129 67.84915161 38.42932129 67.84915161 C38.05033691 68.73860474 38.05033691 68.73860474 37.66369629 69.64602661 C35.52361008 73.46567415 32.15136128 75.65930478 28.42932129 77.84915161 C25.42932129 78.66165161 25.42932129 78.66165161 22.42932129 77.84915161 C16.4643545 73.34931468 11.24521032 67.8001324 5.99182129 62.50930786 C5.2262793 61.74235092 4.4607373 60.97539398 3.67199707 60.18519592 C1.25538932 57.7630428 -1.15769597 55.33741549 -3.57067871 52.91165161 C-5.22018557 51.25712268 -6.869923 49.60282359 -8.51989746 47.94876099 C-12.53949242 43.91820959 -16.5562104 39.88480889 -20.57067871 35.84915161 C-24.57909387 37.45645814 -27.26235122 40.27261541 -30.23928833 43.29071045 C-30.80074157 43.85186597 -31.36219481 44.4130215 -31.94066179 44.99118173 C-33.82162931 46.87353872 -35.69535082 48.76294672 -37.56921387 50.65237427 C-38.91585083 52.00284923 -40.26294362 53.35286978 -41.61045837 54.70246887 C-44.51128244 57.60961686 -47.40896955 60.51984373 -50.30430984 63.43245316 C-54.87839362 68.03354353 -59.46006205 72.62702983 -64.04293823 77.21936035 C-73.76643404 86.96506764 -83.4814675 96.71919104 -93.19567871 106.47415161 C-103.68881456 117.01128154 -114.18336091 127.54698224 -124.6876682 138.07297742 C-129.24771655 142.64302012 -133.80283702 147.21790286 -138.35431314 151.79648232 C-141.17997779 154.6370109 -144.00973057 157.47343905 -146.84063911 160.30874062 C-148.15741695 161.62927892 -149.47245672 162.95155286 -150.78566933 164.27563667 C-152.57125298 166.07554083 -154.36280263 167.86928251 -156.15603638 169.66156006 C-156.68054213 170.19325574 -157.20504789 170.72495141 -157.74544775 171.27275908 C-161.3424928 174.84915161 -161.3424928 174.84915161 -163.57067871 174.84915161 C-163.15337182 179.67856798 -160.88321912 182.09102876 -157.55308533 185.33430481 C-157.02545265 185.86394406 -156.49781997 186.3935833 -155.95419842 186.93927222 C-154.18393301 188.71144278 -152.39977015 190.46892199 -150.61535645 192.22683716 C-149.34341669 193.49437455 -148.07237079 194.76280944 -146.80215454 196.03207397 C-144.06544408 198.76291707 -141.32253884 201.48732629 -138.57467461 204.20694542 C-134.23368258 208.50345014 -129.9068703 212.81404558 -125.58192444 217.12669373 C-118.74360065 223.94225285 -111.89599534 230.74839872 -105.04430491 237.55051786 C-92.76372279 249.74241497 -80.49433219 261.9455506 -68.23525959 274.15907508 C-63.92938496 278.44808981 -59.61795774 282.73142283 -55.30204952 287.01034009 C-52.62441996 289.66675272 -49.95079374 292.32716739 -47.27817154 294.98861694 C-46.03342985 296.22639098 -44.78694715 297.46241692 -43.53864861 298.69660378 C-41.84162077 300.37485967 -40.15074067 302.05907278 -38.46128845 303.74494934 C-37.96003824 304.23764539 -37.45878803 304.73034144 -36.94234842 305.23796767 C-33.57067871 308.62102277 -33.57067871 308.62102277 -33.57067871 310.84915161 C-32.76630371 311.15852661 -32.76630371 311.15852661 -31.94567871 311.47415161 C-28.65089862 313.38165587 -25.97704243 315.89734545 -23.57067871 318.84915161 C-23.57067871 319.50915161 -23.57067871 320.16915161 -23.57067871 320.84915161 C-21.59067871 320.84915161 -19.61067871 320.84915161 -17.57067871 320.84915161 C-17.30424561 320.25674683 -17.0378125 319.66434204 -16.76330566 319.0539856 C-15.54622653 316.80394636 -14.30768243 315.3558355 -12.48864746 313.57180786 C-11.58469238 312.67752075 -11.58469238 312.67752075 -10.66247559 311.76516724 C-10.03405762 311.15350708 -9.40563965 310.54184692 -8.75817871 309.91165161 C-8.1413623 309.30385864 -7.5245459 308.69606567 -6.88903809 308.06985474 C-5.72557825 306.92370461 -4.56006053 305.77963651 -3.39172363 304.63845825 C1.27348469 300.05455802 5.86939974 295.39988628 10.48278809 290.76394653 C17.48689917 283.72722585 24.49604965 276.69554702 31.50810528 269.66674328 C35.74759058 265.41677456 39.98516824 261.16493769 44.21862793 256.90896606 C48.31785227 252.78808857 52.42187467 248.67204736 56.52933693 244.55938148 C58.09525188 242.98976171 59.65940104 241.41837833 61.22177696 239.84523582 C63.39794384 237.65465132 65.58018679 235.47030391 67.76403809 233.28738403 C68.41289474 232.63133682 69.0617514 231.97528961 69.73027039 231.29936218 C74.20121211 226.84915161 74.20121211 226.84915161 76.42932129 226.84915161 C76.6935791 226.26037231 76.95783691 225.67159302 77.23010254 225.06497192 C78.47301073 222.76842577 79.7793861 221.24081995 81.61682129 219.39602661 C82.23299316 218.77727661 82.84916504 218.15852661 83.48400879 217.52102661 C84.12596191 216.88680786 84.76791504 216.25258911 85.42932129 215.59915161 C86.07127441 214.94946411 86.71322754 214.29977661 87.37463379 213.63040161 C87.99080566 213.01680786 88.60697754 212.40321411 89.24182129 211.77102661 C89.8051416 211.20996216 90.36846191 210.64889771 90.94885254 210.0708313 C92.42932129 208.84915161 92.42932129 208.84915161 94.42932129 208.84915161 C94.66006348 208.29098755 94.89080566 207.73282349 95.12854004 207.15774536 C96.77465638 204.23625961 98.8400526 202.24860495 101.24182129 199.91165161 C102.0938916 199.07762817 102.94596191 198.24360474 103.82385254 197.38430786 C105.11355957 196.12940552 105.11355957 196.12940552 106.42932129 194.84915161 C107.27365723 194.00481567 108.11799316 193.16047974 108.98791504 192.29055786 C121.49598796 179.78248494 121.49598796 179.78248494 129.42932129 178.84915161 C136.06287166 179.11408603 141.72168965 181.09143878 146.42932129 185.84915161 C149.43870764 189.7760338 151.32973422 193.86979794 151.42932129 198.84915161 C149.98188996 207.71887615 144.25952068 213.0209497 138.13980293 219.13747597 C135.39870317 221.87978322 132.66284391 224.627248 129.92880249 227.37658691 C128.82454158 228.48671193 127.72026743 229.59682376 126.61598206 230.70692444 C125.73942302 231.58813619 125.73942302 231.58813619 124.84515572 232.48715019 C111.35592574 246.04729808 97.85510844 259.59586031 84.34776115 273.13796043 C76.54428939 280.96205302 68.74461985 288.7898672 60.95373535 296.62649536 C54.14478921 303.47539859 47.32876235 310.31716266 40.50426018 317.1505667 C36.89770364 320.76231864 33.29470106 324.37745671 29.7001915 328.00120163 C26.31570805 331.41299274 22.92178174 334.8151052 19.52062798 338.21027565 C18.28004981 339.45194679 17.04284882 340.69700367 15.80946922 341.94582558 C5.44920064 352.42932512 -5.40314986 362.38435485 -20.88317871 363.28665161 C-31.65374589 362.81091985 -41.1122935 358.62742241 -48.57067871 350.84915161 C-48.57067871 350.18915161 -48.57067871 349.52915161 -48.57067871 348.84915161 C-49.23067871 348.84915161 -49.89067871 348.84915161 -50.57067871 348.84915161 C-52.19567871 347.47415161 -52.19567871 347.47415161 -53.57067871 345.84915161 C-53.57067871 345.18915161 -53.57067871 344.52915161 -53.57067871 343.84915161 C-54.18942871 343.60165161 -54.80817871 343.35415161 -55.44567871 343.09915161 C-57.97426498 341.61174792 -58.28906875 340.41237152 -59.57067871 337.84915161 C-60.23067871 337.51915161 -60.89067871 337.18915161 -61.57067871 336.84915161 C-64.099134 335.58492397 -64.33490635 334.32069633 -65.57067871 331.84915161 C-66.17377869 331.55008911 -66.77687866 331.25102661 -67.39825439 330.94290161 C-69.85204578 329.7074918 -71.38680804 328.28690987 -73.32946777 326.34915161 C-74.04991272 325.63501099 -74.77035767 324.92087036 -75.51263428 324.18508911 C-76.27944519 323.41422974 -77.0462561 322.64337036 -77.83630371 321.84915161 C-78.62970154 321.05766724 -79.42309937 320.26618286 -80.24053955 319.45071411 C-81.91391925 317.77869424 -83.58478052 316.10415064 -85.2532959 314.42727661 C-87.81781468 311.85202763 -90.3928486 309.28764109 -92.96911621 306.72415161 C-94.59215398 305.09979277 -96.21457152 303.47481392 -97.83630371 301.84915161 C-98.61121155 301.07829224 -99.38611938 300.30743286 -100.18450928 299.51321411 C-100.89234558 298.79907349 -101.60018188 298.08493286 -102.32946777 297.34915161 C-102.95693909 296.72008911 -103.5844104 296.09102661 -104.230896 295.44290161 C-105.57067871 293.84915161 -105.57067871 293.84915161 -105.57067871 291.84915161 C-106.36731934 291.53977661 -106.36731934 291.53977661 -107.18005371 291.22415161 C-110.57841307 289.26953969 -113.08123799 286.62791444 -115.82067871 283.84915161 C-116.37497559 283.30258911 -116.92927246 282.75602661 -117.50036621 282.19290161 C-121.57067871 278.10253831 -121.57067871 278.10253831 -121.57067871 275.84915161 C-122.43692871 275.47790161 -122.43692871 275.47790161 -123.32067871 275.09915161 C-125.9000785 273.66615173 -127.63189463 272.06490485 -129.57067871 269.84915161 C-129.57067871 269.18915161 -129.57067871 268.52915161 -129.57067871 267.84915161 C-130.15315369 267.59133911 -130.73562866 267.33352661 -131.33575439 267.06790161 C-133.76131322 265.74519471 -135.37582312 264.29786707 -137.32946777 262.34915161 C-138.04991272 261.63501099 -138.77035767 260.92087036 -139.51263428 260.18508911 C-140.66285065 259.02880005 -140.66285065 259.02880005 -141.83630371 257.84915161 C-142.62970154 257.05766724 -143.42309937 256.26618286 -144.24053955 255.45071411 C-145.91391925 253.77869424 -147.58478052 252.10415064 -149.2532959 250.42727661 C-151.81781468 247.85202763 -154.3928486 245.28764109 -156.96911621 242.72415161 C-158.59215398 241.09979277 -160.21457152 239.47481392 -161.83630371 237.84915161 C-162.61121155 237.07829224 -163.38611938 236.30743286 -164.18450928 235.51321411 C-164.89234558 234.79907349 -165.60018188 234.08493286 -166.32946777 233.34915161 C-167.27067474 232.40555786 -167.27067474 232.40555786 -168.230896 231.44290161 C-169.57067871 229.84915161 -169.57067871 229.84915161 -169.57067871 227.84915161 C-170.12755371 227.62227661 -170.68442871 227.39540161 -171.25817871 227.16165161 C-173.59772483 225.83380111 -175.18761363 224.28739267 -177.05627441 222.3767395 C-178.75232328 220.66592574 -180.49444088 219.01060877 -182.24255371 217.35305786 C-193.42557402 206.61473926 -204.11724856 195.91312261 -205.90661621 179.82962036 C-206.11611826 164.85022382 -199.35093483 155.70544646 -189.25053465 145.31181943 C-186.42493085 142.44454941 -183.57175837 139.60547196 -180.71643066 136.76785278 C-179.43230913 135.48429655 -178.14863011 134.20029748 -176.86535645 132.91589355 C-173.40519093 129.45515784 -169.93892417 126.00059372 -166.47147393 122.54715896 C-162.83338452 118.92164569 -159.20102844 115.29039716 -155.56803894 111.65977478 C-148.69340691 104.79134228 -141.81369786 97.92801887 -134.93211573 91.06655055 C-127.11378911 83.27058303 -119.30114067 75.46893581 -111.48897231 67.666798 C-98.13615758 54.33132444 -84.77913894 41.00007394 -71.41734314 27.67359924 C-70.85334987 27.11108517 -70.28935661 26.54857109 -69.70827264 25.96901113 C-68.67470552 24.93817747 -67.64110662 23.9073757 -66.60746652 22.87661523 C-64.33117549 20.6064098 -62.07285865 18.32860811 -59.85063457 16.00494862 C-57.57067871 13.84915161 -57.57067871 13.84915161 -55.57067871 13.84915161 C-55.18202637 12.97710083 -55.18202637 12.97710083 -54.78552246 12.08743286 C-50.31417286 3.84922283 -40.93450814 -2.52357936 -32.44177246 -6.02975464 C-20.78786492 -9.39643904 -9.77003069 -6.68725769 0 0 Z " fill="#011E3C" transform="translate(265.5706787109375,329.1508483886719)"/>
<path d="M0 0 C1.40789795 0.01087646 1.40789795 0.01087646 2.84423828 0.02197266 C5.50179562 0.04946624 8.15593026 0.11178931 10.8125 0.1875 C11.96057129 0.19595947 11.96057129 0.19595947 13.13183594 0.20458984 C17.00862622 0.36486829 18.85817723 0.88935945 21.94921875 3.30078125 C25.34218422 7.76657008 25.12591744 11.50753177 25.12939453 17.04418945 C25.13202301 18.09621552 25.13202301 18.09621552 25.13470459 19.16949463 C25.13909933 21.48411548 25.13619252 23.79865964 25.1328125 26.11328125 C25.13348645 27.72747309 25.13445724 29.34166483 25.13571167 30.95585632 C25.13718561 34.33931443 25.13504466 37.72274613 25.13037109 41.10620117 C25.1246877 45.43024721 25.1279459 49.75423099 25.13394356 54.07827473 C25.13756906 57.41296349 25.13640122 60.74763767 25.13381577 64.08232689 C25.13315128 65.6758341 25.1339581 67.26934265 25.13629532 68.86284828 C25.13885302 71.09780978 25.134937 73.33267273 25.12939453 75.56762695 C25.12859894 76.83685501 25.12780334 78.10608307 25.12698364 79.41377258 C24.78778187 88.99338983 24.78778187 88.99338983 21.75 92.875 C15.52331392 97.68653015 6.53155264 96.44733844 -1 96 C-4.87239789 95.20933355 -7.26404845 94.01797319 -9.63989258 90.73168945 C-11.12575574 87.74742757 -11.41920612 85.792421 -11.51171875 82.48046875 C-11.54716797 81.45888672 -11.58261719 80.43730469 -11.61914062 79.38476562 C-11.64169922 78.32966797 -11.66425781 77.27457031 -11.6875 76.1875 C-11.72166016 75.11306641 -11.75582031 74.03863281 -11.79101562 72.93164062 C-11.87326643 70.28786467 -11.94249209 67.64441079 -12 65 C-12.75796875 65.93328125 -13.5159375 66.8665625 -14.296875 67.828125 C-16.14283525 70.04379802 -17.95514066 71.98658177 -20.25 73.75 C-23.02359938 75.70631884 -23.02359938 75.70631884 -24 78 C-24.66 78 -25.32 78 -26 78 C-26.33 78.99 -26.66 79.98 -27 81 C-27.66 81 -28.32 81 -29 81 C-29.20625 81.556875 -29.4125 82.11375 -29.625 82.6875 C-31.14383179 85.24189892 -32.96355993 86.68220386 -35.28125 88.5 C-37.96153396 90.83915691 -40.13916505 93.57939266 -42.38671875 96.328125 C-44 98 -44 98 -47 99 C-47.39989136 99.82588623 -47.39989136 99.82588623 -47.80786133 100.66845703 C-49.578549 104.13150582 -52.33506355 106.59945645 -55.07421875 109.3046875 C-55.97730522 110.20708664 -55.97730522 110.20708664 -56.89863586 111.12771606 C-58.17314198 112.39920488 -59.45007389 113.66826614 -60.72924805 114.93505859 C-62.66832002 116.85599936 -64.59939485 118.78469509 -66.52929688 120.71484375 C-67.77296926 121.95359528 -69.0170958 123.19189105 -70.26171875 124.4296875 C-70.83178146 124.99863739 -71.40184418 125.56758728 -71.98918152 126.15377808 C-75.37538177 129.50095452 -78.86286722 132.66106444 -82.51681519 135.71440125 C-84.35695783 137.30940483 -85.90164459 139.05059192 -87.4375 140.9375 C-90.42130119 144.46013662 -93.64373931 147.42644119 -97.203125 150.359375 C-99.09659467 151.97914107 -99.09659467 151.97914107 -100.609375 154.203125 C-101.06828125 154.79609375 -101.5271875 155.3890625 -102 156 C-102.66 156 -103.32 156 -104 156 C-104.268125 156.639375 -104.53625 157.27875 -104.8125 157.9375 C-106 160 -106 160 -109 161 C-109.68170862 162.32570569 -110.34564554 163.6605813 -111 165 C-112.38868013 166.52509271 -113.83179259 168.0015871 -115.3125 169.4375 C-116.11558594 170.21996094 -116.91867187 171.00242187 -117.74609375 171.80859375 C-118.48988281 172.53175781 -119.23367188 173.25492188 -120 174 C-120.96042232 174.99799386 -121.91927258 175.99750916 -122.875 177 C-125 179 -125 179 -128 180 C-128.28875 180.598125 -128.5775 181.19625 -128.875 181.8125 C-130.35564308 184.69152822 -132.46214569 186.03316291 -135 188 C-135.66 188.99 -136.32 189.98 -137 191 C-137.66 191 -138.32 191 -139 191 C-139 191.66 -139 192.32 -139 193 C-140.61539817 194.76684175 -142.25463295 196.36873685 -144 198 C-144.60457031 198.62132812 -145.20914063 199.24265625 -145.83203125 199.8828125 C-149.04748013 203.01581398 -151.56323792 205.46207425 -156.1875 205.75 C-160.9191244 204.81918864 -161.92411221 203.67606102 -165 200 C-166.51760743 198.55909475 -168.03875082 197.12190884 -169.5625 195.6875 C-177.40159783 187.76961726 -177.40159783 187.76961726 -178 183 C-176.09782432 177.53433459 -173.50410594 173.93239463 -169.36225891 169.88124084 C-168.79208186 169.30764609 -168.22190481 168.73405134 -167.63444966 168.14307493 C-165.73221445 166.23428069 -163.81609392 164.34008488 -161.8996582 162.44555664 C-160.52891562 161.07594295 -159.15905443 159.70544666 -157.79000854 158.33413696 C-154.0781331 154.62111512 -150.35406503 150.92054504 -146.62767434 147.22209859 C-142.73276082 143.35221066 -138.84919155 139.47097238 -134.96440125 135.59092712 C-127.60951279 128.24846497 -120.24448848 120.91625785 -112.87576216 113.587686 C-104.48585597 105.24250805 -96.10732143 96.88595271 -87.72971976 88.52842534 C-70.49909762 71.33959973 -53.25425384 54.16510152 -36 37 C-36.8470752 36.99589111 -37.69415039 36.99178223 -38.56689453 36.98754883 C-41.73206254 36.96046092 -44.8959234 36.91126375 -48.06054688 36.84741211 C-49.42598665 36.82432106 -50.79160229 36.8098573 -52.15722656 36.80444336 C-64.9726283 36.74364036 -64.9726283 36.74364036 -68.8671875 33.57421875 C-72.90152473 28.70493627 -72.28902958 24.31093857 -72.375 18.1875 C-72.43107422 16.68993164 -72.43107422 16.68993164 -72.48828125 15.16210938 C-72.57711028 7.75475498 -72.57711028 7.75475498 -69.6015625 3.86328125 C-65.39007456 0.84694529 -62.23703165 0.79466472 -57.1875 0.68359375 C-56.39486755 0.66272202 -55.60223511 0.64185028 -54.7855835 0.62034607 C-52.19049041 0.55395534 -49.59530028 0.49518522 -47 0.4375 C-45.67579041 0.40623016 -45.67579041 0.40623016 -44.3248291 0.37432861 C-29.548073 0.02627301 -14.78081005 -0.21899405 0 0 Z " fill="#FCB52C" transform="translate(393,396)"/>
<path d="M0 0 C3.90333391 2.34704776 7.02186018 5.62642133 9.5 9.4375 C9.5 10.0975 9.5 10.7575 9.5 11.4375 C10.16 11.4375 10.82 11.4375 11.5 11.4375 C11.665 10.73625 11.83 10.035 12 9.3125 C14.88766648 3.7778059 20.6375287 0.30557088 26.5 -1.5625 C34.66686838 -2.41074961 42.60454721 -2.42907205 49.5 2.4375 C55.82523891 7.92102414 59.05045507 14.14954071 59.76226807 22.52253723 C59.84566191 26.09298629 59.83741456 29.65151132 59.79296875 33.22265625 C59.78872391 34.51948837 59.78447906 35.8163205 59.78010559 37.15245056 C59.76874898 40.57036256 59.73936355 43.98788117 59.70599365 47.40563965 C59.67509233 50.90513796 59.66155777 54.40470094 59.64648438 57.90429688 C59.61448284 64.74887404 59.56179233 71.59312753 59.5 78.4375 C52.24 78.4375 44.98 78.4375 37.5 78.4375 C37.470271 76.06062988 37.470271 76.06062988 37.43994141 73.63574219 C37.36391723 67.76139326 37.27519455 61.88729306 37.18261719 56.01318359 C37.14431434 53.46993924 37.1094638 50.92664048 37.078125 48.38330078 C37.03250338 44.72929423 36.97450322 41.07566273 36.9140625 37.421875 C36.90251129 36.28320984 36.89096008 35.14454468 36.87905884 33.97137451 C36.85918915 32.91057678 36.83931946 31.84977905 36.81884766 30.75683594 C36.80552399 29.82417908 36.79220032 28.89152222 36.7784729 27.93060303 C36.48110013 25.26829384 35.97192463 23.66761009 34.5 21.4375 C29.07926134 18.29347157 25.5828937 17.94170647 19.5 19.4375 C17.11687297 21.33178046 15.8499441 22.73761179 14.5 25.4375 C14.38097188 27.13213258 14.32285313 28.83121122 14.29467773 30.52978516 C14.27473251 31.59073395 14.25478729 32.65168274 14.23423767 33.74478149 C14.21752518 34.89376923 14.20081268 36.04275696 14.18359375 37.2265625 C14.1524221 38.98690323 14.1524221 38.98690323 14.12062073 40.7828064 C14.05508017 44.54264304 13.99621924 48.30255122 13.9375 52.0625 C13.89431908 54.60677832 13.85070493 57.15104933 13.80664062 59.6953125 C13.69939418 65.94263207 13.5976362 72.19002326 13.5 78.4375 C10.02085059 78.46637814 6.54173169 78.48425687 3.0625 78.5 C1.57266602 78.51256836 1.57266602 78.51256836 0.05273438 78.52539062 C-1.36362305 78.53022461 -1.36362305 78.53022461 -2.80859375 78.53515625 C-3.68314209 78.54039307 -4.55769043 78.54562988 -5.45874023 78.55102539 C-7.5 78.4375 -7.5 78.4375 -8.5 77.4375 C-8.61245621 75.80191235 -8.65676722 74.16157965 -8.67358398 72.5222168 C-8.68707382 71.47410324 -8.70056366 70.42598969 -8.71446228 69.34611511 C-8.72490067 68.20451431 -8.73533905 67.06291351 -8.74609375 65.88671875 C-8.77903488 63.49283492 -8.81224648 61.0989548 -8.84570312 58.70507812 C-8.8931334 54.91286811 -8.9375448 51.12067286 -8.97680664 47.32836914 C-9.01648048 43.68098904 -9.06804296 40.03392533 -9.12109375 36.38671875 C-9.1295079 35.25119064 -9.13792206 34.11566254 -9.14659119 32.94572449 C-9.17155418 31.35936943 -9.17155418 31.35936943 -9.19702148 29.7409668 C-9.20732895 28.81132614 -9.21763641 27.88168549 -9.22825623 26.9238739 C-9.51621948 24.28909667 -10.08645879 22.66683499 -11.5 20.4375 C-15.33342115 17.99805017 -18.99307877 18.2223759 -23.34375 18.82421875 C-26.73414149 19.78851488 -28.40683888 21.69022603 -30.5 24.4375 C-31.48103288 27.38059863 -31.65221687 29.3871903 -31.70532227 32.4597168 C-31.72526749 33.48054855 -31.74521271 34.50138031 -31.76576233 35.55314636 C-31.79083107 37.20326469 -31.79083107 37.20326469 -31.81640625 38.88671875 C-31.83718735 40.0144722 -31.85796844 41.14222565 -31.87937927 42.30415344 C-31.94482847 45.9110396 -32.00373844 49.51799929 -32.0625 53.125 C-32.10568961 55.56836702 -32.14930404 58.01172656 -32.19335938 60.45507812 C-32.3005052 66.44914316 -32.40178591 72.44328224 -32.5 78.4375 C-39.76 78.4375 -47.02 78.4375 -54.5 78.4375 C-54.52255146 68.28483453 -54.54091534 58.13218557 -54.55181217 47.97950077 C-54.55704089 43.26570267 -54.56413834 38.55192253 -54.57543945 33.83813477 C-54.58626873 29.29294596 -54.59227692 24.74777448 -54.59487724 20.20257378 C-54.59673142 18.46455042 -54.60035189 16.72652806 -54.60573006 14.98851204 C-54.61294103 12.56271405 -54.61399092 10.13698854 -54.61352539 7.71118164 C-54.61712067 6.98541931 -54.62071594 6.25965698 -54.62442017 5.51190186 C-54.61405216 0.55155216 -54.61405216 0.55155216 -53.5 -0.5625 C-52.0112814 -0.64919432 -50.518555 -0.66953494 -49.02734375 -0.66015625 C-48.12822266 -0.65693359 -47.22910156 -0.65371094 -46.30273438 -0.65039062 C-45.35720703 -0.64201172 -44.41167969 -0.63363281 -43.4375 -0.625 C-42.48810547 -0.62048828 -41.53871094 -0.61597656 -40.56054688 -0.61132812 C-38.20700469 -0.59950128 -35.85349468 -0.58156521 -33.5 -0.5625 C-33.17 3.0675 -32.84 6.6975 -32.5 10.4375 C-31.5409375 8.8596875 -31.5409375 8.8596875 -30.5625 7.25 C-23.53442196 -2.35503998 -10.87149522 -4.79931651 0 0 Z " fill="#04203D" transform="translate(841.5,488.5625)"/>
<path d="M0 0 C1.40958984 -0.00193359 1.40958984 -0.00193359 2.84765625 -0.00390625 C3.83636719 -0.00003906 4.82507813 0.00382813 5.84375 0.0078125 C7.32681641 0.00201172 7.32681641 0.00201172 8.83984375 -0.00390625 C9.77957031 -0.00261719 10.71929687 -0.00132812 11.6875 0 C12.55568359 0.00112793 13.42386719 0.00225586 14.31835938 0.00341797 C16.34375 0.1328125 16.34375 0.1328125 17.34375 1.1328125 C17.43245641 4.16237493 17.45901582 7.1696796 17.44140625 10.19921875 C17.44039917 11.004198 17.43939209 11.80917725 17.43835449 12.6385498 C17.43310614 15.65748511 17.419145 18.67640017 17.40625 21.6953125 C17.385625 28.4396875 17.365 35.1840625 17.34375 42.1328125 C39.12375 42.6278125 39.12375 42.6278125 61.34375 43.1328125 C61.34375 28.9428125 61.34375 14.7528125 61.34375 0.1328125 C68.60375 0.1328125 75.86375 0.1328125 83.34375 0.1328125 C84.03749834 3.6015542 84.46897706 6.11551849 84.47073364 9.52374268 C84.47496338 10.79400803 84.47496338 10.79400803 84.47927856 12.0899353 C84.47624222 13.46322495 84.47624222 13.46322495 84.47314453 14.86425781 C84.47577301 16.32597916 84.47577301 16.32597916 84.47845459 17.81723022 C84.48284908 21.03181753 84.47994447 24.24634966 84.4765625 27.4609375 C84.47723601 29.69342052 84.47820643 31.92590346 84.47946167 34.15838623 C84.4809352 38.83216044 84.47879431 43.50591552 84.47412109 48.1796875 C84.4684108 54.18467344 84.4717132 60.18961482 84.47769356 66.19459915 C84.4812972 70.80121195 84.48016173 75.40781408 84.47756577 80.01442719 C84.47689663 82.22972367 84.47772444 84.4450211 84.48004532 86.66031647 C84.48257004 89.74655245 84.47873442 92.83271485 84.47314453 95.91894531 C84.47516876 96.84256866 84.47719299 97.76619202 84.47927856 98.71780396 C84.4580151 105.0185474 84.4580151 105.0185474 83.34375 106.1328125 C76.08375 106.1328125 68.82375 106.1328125 61.34375 106.1328125 C61.34375 91.6128125 61.34375 77.0928125 61.34375 62.1328125 C46.82375 62.1328125 32.30375 62.1328125 17.34375 62.1328125 C17.34375 76.3228125 17.34375 90.5128125 17.34375 105.1328125 C14.23095473 105.91101132 12.15480024 106.26080777 9.05078125 106.265625 C8.25607422 106.26691406 7.46136719 106.26820313 6.64257812 106.26953125 C5.82208984 106.26566406 5.00160156 106.26179687 4.15625 106.2578125 C2.90811523 106.26361328 2.90811523 106.26361328 1.63476562 106.26953125 C-4.52957908 106.25948342 -4.52957908 106.25948342 -5.65625 105.1328125 C-5.75371311 103.7817393 -5.78256579 102.42562877 -5.78323364 101.07104492 C-5.78605347 100.1960434 -5.78887329 99.32104187 -5.79177856 98.41952515 C-5.78975433 97.45221466 -5.7877301 96.48490417 -5.78564453 95.48828125 C-5.78739685 94.47537018 -5.78914917 93.46245911 -5.79095459 92.41885376 C-5.79537522 89.05265619 -5.79243437 85.68651066 -5.7890625 82.3203125 C-5.78973548 79.99243154 -5.79070545 77.66455064 -5.79196167 75.33666992 C-5.79343893 70.45067681 -5.79128318 65.56470194 -5.78662109 60.67871094 C-5.7809238 54.40008594 -5.78420265 48.12150368 -5.79019356 41.84288025 C-5.79379841 37.03381017 -5.79266093 32.22475031 -5.79006577 27.41567993 C-5.78939629 25.09990433 -5.79022564 22.78412781 -5.79254532 20.46835327 C-5.79507061 17.23799159 -5.79123299 14.00770017 -5.78564453 10.77734375 C-5.78766876 9.81003326 -5.78969299 8.84272278 -5.79177856 7.84609985 C-5.78895874 6.97109833 -5.78613892 6.0960968 -5.78323364 5.19458008 C-5.78285662 4.42986893 -5.78247959 3.66515778 -5.78209114 2.87727356 C-5.51965061 -0.76078384 -3.07668305 0.00399718 0 0 Z " fill="#05203D" transform="translate(474.65625,581.8671875)"/>
<path d="M0 0 C1.16781006 0.00523682 2.33562012 0.01047363 3.53881836 0.01586914 C4.79887695 0.0190918 6.05893555 0.02231445 7.35717773 0.02563477 C8.6976732 0.03399136 10.03816799 0.04245632 11.37866211 0.05102539 C12.72306153 0.05603879 14.06746271 0.06060197 15.41186523 0.06469727 C18.71334151 0.07653051 22.01473014 0.09301568 25.31616211 0.11352539 C30.46468298 14.68934193 35.45040418 29.31722619 40.39584351 43.96304321 C49.31716328 70.43603933 49.31716328 70.43603933 58.72558594 96.73852539 C59.07903076 97.7040332 59.43247559 98.66954102 59.79663086 99.66430664 C60.094646 100.46521729 60.39266113 101.26612793 60.69970703 102.09130859 C61.31616211 104.11352539 61.31616211 104.11352539 61.31616211 107.11352539 C53.39616211 107.11352539 45.47616211 107.11352539 37.31616211 107.11352539 C34.41815117 99.86849803 31.78372951 92.5162276 29.31616211 85.11352539 C17.10616211 85.11352539 4.89616211 85.11352539 -7.68383789 85.11352539 C-9.94579039 91.97853482 -9.94579039 91.97853482 -12.20117188 98.84570312 C-12.4829126 99.69592041 -12.76465332 100.5461377 -13.05493164 101.42211914 C-13.34295654 102.29666748 -13.63098145 103.17121582 -13.92773438 104.07226562 C-14.68383789 106.11352539 -14.68383789 106.11352539 -15.68383789 107.11352539 C-17.46455035 107.20078762 -19.24866929 107.2205158 -21.03149414 107.21118164 C-22.11108398 107.20795898 -23.19067383 107.20473633 -24.30297852 107.20141602 C-25.43928711 107.19303711 -26.5755957 107.1846582 -27.74633789 107.17602539 C-28.88651367 107.17151367 -30.02668945 107.16700195 -31.20141602 107.16235352 C-34.02894393 107.15052285 -36.85635685 107.13320157 -39.68383789 107.11352539 C-37.75021056 99.68233017 -35.51802311 92.4218236 -32.98071289 85.17602539 C-32.44815132 83.64097099 -32.44815132 83.64097099 -31.90483093 82.0749054 C-30.7514113 78.75318884 -29.5927833 75.43331761 -28.43383789 72.11352539 C-27.63156529 69.8078741 -26.82956641 67.50212756 -26.02783203 65.19628906 C-24.38993679 60.48750148 -22.74982293 55.77949477 -21.1081543 51.07202148 C-19.15892247 45.48073477 -17.2169828 39.88695972 -15.27896118 34.29177856 C-13.88949637 30.28080018 -12.49758568 26.27067357 -11.10510254 22.26074219 C-10.45020802 20.37366432 -9.79615271 18.486295 -9.14294434 16.59863281 C-8.24137189 13.99455342 -7.33615931 11.39176898 -6.42993164 8.78930664 C-6.03121101 7.63378044 -6.03121101 7.63378044 -5.62443542 6.45491028 C-3.41962772 0.14464904 -3.41962772 0.14464904 0 0 Z M10.31616211 25.11352539 C8.92372794 29.50448792 7.53640657 33.89702282 6.15356445 38.29101562 C5.68357316 39.78200581 5.21224756 41.27257614 4.73950195 42.76269531 C4.05571006 44.91888052 3.376916 47.07658827 2.69897461 49.23461914 C2.49055939 49.88812851 2.28214417 50.54163788 2.06741333 51.21495056 C0.51768231 56.17256858 -0.54607431 60.99358928 -1.68383789 66.11352539 C6.56616211 66.11352539 14.81616211 66.11352539 23.31616211 66.11352539 C20.87259887 56.28068439 20.87259887 56.28068439 18.05444336 46.59790039 C17.8589238 45.97119446 17.66340424 45.34448853 17.46195984 44.6987915 C16.8540359 42.7526912 16.24147033 40.80809243 15.62866211 38.86352539 C15.20842705 37.52117548 14.78850343 36.17872803 14.36889648 34.83618164 C13.35435986 31.59432897 12.3367297 28.35348346 11.31616211 25.11352539 C10.98616211 25.11352539 10.65616211 25.11352539 10.31616211 25.11352539 Z " fill="#041F3D" transform="translate(506.683837890625,459.886474609375)"/>
<path d="M0 0 C0.87454834 0.04713135 1.74909668 0.0942627 2.65014648 0.14282227 C3.50036377 0.18592529 4.35058105 0.22902832 5.2265625 0.2734375 C6.31380615 0.33474854 7.4010498 0.39605957 8.52124023 0.45922852 C13.68780273 0.73766602 13.68780273 0.73766602 18.95874023 1.02172852 C19.28874023 12.90172852 19.61874023 24.78172852 19.95874023 37.02172852 C21.93874023 34.71172852 23.91874023 32.40172852 25.95874023 30.02172852 C28.15405273 28.49829102 28.15405273 28.49829102 30.08374023 27.64672852 C30.72569336 27.35024414 31.36764648 27.05375977 32.02905273 26.74829102 C39.15538522 24.065097 46.19927461 24.44301445 53.36499023 26.78735352 C60.22548351 30.05228706 66.31296632 35.82183377 69.22045898 42.90454102 C69.4640918 43.60321289 69.70772461 44.30188477 69.95874023 45.02172852 C70.4015332 46.13161133 70.4015332 46.13161133 70.85327148 47.26391602 C75.27070556 60.21365426 74.61376492 76.62619452 68.95874023 89.02172852 C65.07927667 96.4005353 59.27058229 103.50652982 51.23608398 106.54907227 C43.58749784 108.13651467 34.47876275 108.53988221 27.61108398 104.37719727 C24.60605082 101.9120755 22.32630606 99.09956408 19.95874023 96.02172852 C19.62874023 99.32172852 19.29874023 102.62172852 18.95874023 106.02172852 C11.69874023 106.02172852 4.43874023 106.02172852 -3.04125977 106.02172852 C-3.06380821 92.34869995 -3.08217335 78.67568364 -3.09307194 65.00264072 C-3.09830141 58.65442275 -3.10540021 52.30621811 -3.11669922 45.95800781 C-3.12752583 39.83724269 -3.13353612 33.71649043 -3.13613701 27.59571648 C-3.13799167 25.25481908 -3.14161305 22.91392243 -3.14698982 20.57303047 C-3.15419725 17.3066465 -3.15525083 14.04031636 -3.15478516 10.77392578 C-3.15838043 9.79569351 -3.16197571 8.81746124 -3.16567993 7.80958557 C-3.16430527 6.92472473 -3.1629306 6.03986389 -3.16151428 5.12818909 C-3.16243608 4.35480477 -3.16335787 3.58142046 -3.16430759 2.78460026 C-2.98351146 0.19438473 -2.5914728 0.02758535 0 0 Z M22.95874023 49.02172852 C18.25402075 56.48438701 17.78275338 66.01215791 19.45483398 74.55688477 C21.20111791 80.4666253 23.8115036 84.28246616 29.33374023 87.33422852 C33.98116092 88.55141012 37.63206464 88.51598021 42.14624023 86.83422852 C46.69455491 83.90309239 49.35081137 80.56165121 50.64233398 75.23266602 C51.80935841 67.07790271 51.88965931 58.45023701 47.95874023 51.02172852 C45.00165633 47.55977663 42.96292081 45.20474501 38.34936523 44.78344727 C29.89245488 44.53116491 29.89245488 44.53116491 22.95874023 49.02172852 Z " fill="#05213E" transform="translate(666.041259765625,581.978271484375)"/>
<path d="M0 0 C0.79792969 -0.00128906 1.59585938 -0.00257813 2.41796875 -0.00390625 C3.66126953 0.00189453 3.66126953 0.00189453 4.9296875 0.0078125 C6.18458984 0.00201172 6.18458984 0.00201172 7.46484375 -0.00390625 C13.67803876 0.00616376 13.67803876 0.00616376 14.8046875 1.1328125 C14.96472238 3.79707935 15.06411639 6.43841678 15.12109375 9.10546875 C15.14187485 9.90311142 15.16265594 10.70075409 15.18406677 11.52256775 C15.24964908 14.08005861 15.30848717 16.6376553 15.3671875 19.1953125 C15.41036449 20.92514132 15.45397851 22.65495929 15.49804688 24.38476562 C15.60533922 28.6340051 15.70658176 32.8833514 15.8046875 37.1328125 C16.34158203 36.64925293 16.87847656 36.16569336 17.43164062 35.66748047 C18.14255859 35.03471191 18.85347656 34.40194336 19.5859375 33.75 C20.28783203 33.12206543 20.98972656 32.49413086 21.71289062 31.84716797 C27.34939763 27.22770576 34.08778029 25.78171585 41.21875 26.3125 C48.49904682 27.41694131 54.63863031 30.32582179 59.40625 36.05859375 C68.66591208 50.00223694 65.79390632 68.99087952 65.3671875 84.8828125 C65.31386454 87.04425639 65.26112516 89.20571477 65.20898438 91.3671875 C65.08203118 96.62264683 64.94309482 101.8775929 64.8046875 107.1328125 C57.8746875 107.1328125 50.9446875 107.1328125 43.8046875 107.1328125 C43.75570312 103.8328125 43.70671875 100.5328125 43.65625 97.1328125 C43.60216297 93.91906394 43.54488581 90.70538685 43.48730469 87.49169922 C43.44913986 85.26681902 43.41426569 83.04187974 43.3828125 80.81689453 C43.33688988 77.60948648 43.27894075 74.40248075 43.21875 71.1953125 C43.20719879 70.20853516 43.19564758 69.22175781 43.18374634 68.20507812 C43.02317302 57.31073342 43.02317302 57.31073342 37.8046875 48.1328125 C32.35472707 46.31615902 26.83081923 46.5065536 21.3671875 48.1953125 C18.0786227 50.68178832 16.87900223 53.25123564 15.8046875 57.1328125 C15.35516502 61.00648506 15.31651454 64.85697641 15.29296875 68.75390625 C15.27501755 69.85380386 15.25706635 70.95370148 15.23857117 72.08692932 C15.18462261 75.58135202 15.15062129 79.07563931 15.1171875 82.5703125 C15.08400087 84.9472844 15.04950998 87.32423847 15.01367188 89.70117188 C14.9264627 95.5117366 14.86625945 101.32169389 14.8046875 107.1328125 C7.5446875 107.1328125 0.2846875 107.1328125 -7.1953125 107.1328125 C-7.1953125 72.1528125 -7.1953125 37.1728125 -7.1953125 1.1328125 C-4.45628524 0.21980341 -2.8208298 0.00434642 0 0 Z " fill="#031E3C" transform="translate(570.1953125,336.8671875)"/>
<path d="M0 0 C0 26.07 0 52.14 0 79 C-7.26 79 -14.52 79 -22 79 C-22.33 75.7 -22.66 72.4 -23 69 C-23.4846875 69.54269531 -23.969375 70.08539062 -24.46875 70.64453125 C-28.95274785 75.43033665 -32.58673113 78.46497824 -39 80 C-40.670625 80.4021875 -40.670625 80.4021875 -42.375 80.8125 C-51.1895218 81.26842354 -58.39354839 78.92433233 -65 73 C-72.87291766 63.87955363 -73.2963528 54.55457291 -73.1953125 42.96875 C-73.19106766 41.1212616 -73.19106766 41.1212616 -73.18673706 39.2364502 C-73.17559202 35.32419898 -73.15049749 31.41218138 -73.125 27.5 C-73.11382966 24.83854502 -73.10583833 22.17709223 -73.09765625 19.515625 C-73.0756712 13.01032742 -73.04118019 6.50520325 -73 0 C-65.74 0 -58.48 0 -51 0 C-50.95101562 3.3721875 -50.90203125 6.744375 -50.8515625 10.21875 C-50.79747892 13.5019964 -50.74020039 16.7851727 -50.68261719 20.06835938 C-50.64444711 22.34174326 -50.60957381 24.61518508 -50.578125 26.88867188 C-50.53221393 30.16557451 -50.47426267 33.44208244 -50.4140625 36.71875 C-50.40251129 37.72740112 -50.39096008 38.73605225 -50.37905884 39.77526855 C-50.35655515 49.45451533 -50.35655515 49.45451533 -46.375 57.9375 C-40.23097728 60.68614174 -35.31325791 60.17255501 -29.078125 58.27734375 C-26.04949602 56.41576165 -24.37160501 54.22406257 -23 51 C-22.39519985 47.08831405 -22.39510259 43.21046261 -22.390625 39.2578125 C-22.37408875 38.13430389 -22.35755249 37.01079529 -22.34051514 35.85324097 C-22.29206585 32.27710485 -22.27067002 28.70139394 -22.25 25.125 C-22.22183791 22.69529114 -22.19191015 20.26560207 -22.16015625 17.8359375 C-22.08630754 11.89070211 -22.03464693 5.94558615 -22 0 C-19.08365878 -0.19502282 -16.16720455 -0.38129328 -13.25 -0.5625 C-12.0125 -0.64661133 -12.0125 -0.64661133 -10.75 -0.73242188 C-9.95078125 -0.78076172 -9.1515625 -0.82910156 -8.328125 -0.87890625 C-7.5949707 -0.9260376 -6.86181641 -0.97316895 -6.10644531 -1.02172852 C-4 -1 -4 -1 0 0 Z " fill="#06213E" transform="translate(647,609)"/>
<path d="M0 0 C9.78381193 7.05902737 14.89524723 15.0653404 17.49609375 26.76171875 C19.51298083 39.72295431 18.0494448 52.62655624 10.78515625 63.74609375 C5.24360741 70.74275388 -2.25086624 75.31016731 -11 77 C-24.47964412 78.32677092 -36.47042549 77.82419949 -47.3125 69 C-55.66008718 60.97142889 -59.04564051 51.42745603 -59.29248047 40.10839844 C-59.38298659 28.31611281 -58.63202927 17.12226036 -50.68359375 7.70703125 C-38.1919952 -4.95846427 -15.84966554 -9.49448564 0 0 Z M-32 17 C-38.04541211 25.07355036 -37.64333598 34.37953896 -37 44 C-36.13113369 49.79509918 -34.03103934 54.35514672 -29.2890625 57.95703125 C-24.34452048 60.20991985 -19.25224605 59.97239316 -14 59 C-9.40759554 56.90755633 -6.94756707 53.60507252 -5.0625 49 C-2.62107359 40.0228296 -2.65795084 29.37517782 -7 21 C-9.21656206 17.61418352 -11.04620713 15.31793096 -15 14 C-21.1395809 13.49880972 -26.89594251 13.14083458 -32 17 Z " fill="#04203D" transform="translate(756,491)"/>
<path d="M0 0 C9.47581139 9.07416789 11.43851175 19.93783953 12.63671875 32.4921875 C12.6875 34.875 12.6875 34.875 11.6875 37.875 C-5.8025 37.875 -23.2925 37.875 -41.3125 37.875 C-38.95819721 47.51629567 -38.95819721 47.51629567 -32.58203125 53.98046875 C-26.76922216 56.27157595 -19.42093919 55.58972515 -13.625 53.625 C-10.93430362 51.85753088 -10.93430362 51.85753088 -9.3125 47.875 C-2.3825 47.875 4.5475 47.875 11.6875 47.875 C8.21761322 57.41718863 4.97174815 64.36424684 -4.109375 69.4375 C-15.11133432 74.45393741 -25.63252641 74.81673032 -37.3125 71.875 C-47.22756199 68.1192947 -54.25925249 62.20407232 -59.3125 52.875 C-64.95743311 39.92228527 -64.13663191 25.58961845 -59.46484375 12.5 C-54.92217431 2.43139934 -47.49095261 -3.22985816 -37.3125 -7.125 C-23.91322452 -11.13554176 -10.76550191 -9.01371906 0 0 Z M-36.3125 11.875 C-39.21662232 15.84478065 -40.3125 18.9465467 -40.3125 23.875 C-37.44231559 25.31009221 -34.97706277 24.98658506 -31.7734375 24.97265625 C-30.47148438 24.96943359 -29.16953125 24.96621094 -27.828125 24.96289062 C-26.44791601 24.95453466 -25.06770768 24.94606971 -23.6875 24.9375 C-22.29948074 24.93248501 -20.91145978 24.9279221 -19.5234375 24.92382812 C-16.11974868 24.91200976 -12.71614561 24.89553434 -9.3125 24.875 C-9.50972656 22.99748047 -9.50972656 22.99748047 -9.7109375 21.08203125 C-9.78489746 20.37796143 -9.85885742 19.6738916 -9.93505859 18.94848633 C-10.56304497 15.49862324 -12.01470061 13.47514141 -14.3125 10.875 C-21.86965106 6.59736733 -29.38141173 6.4624365 -36.3125 11.875 Z " fill="#041F3D" transform="translate(711.3125,372.125)"/>
<path d="M0 0 C0.73283203 -0.00014603 1.46566406 -0.00029205 2.22070312 -0.0004425 C4.60672118 0.00024579 6.99265795 0.00798657 9.37866211 0.01586914 C11.04731707 0.01773718 12.71597259 0.01915926 14.3846283 0.02015686 C18.74931384 0.02395165 23.11396544 0.03375557 27.4786377 0.04486084 C31.94335471 0.0551407 36.40807727 0.05966849 40.87280273 0.06469727 C49.61305259 0.07538092 58.35327498 0.09242031 67.09350586 0.11352539 C68.88669749 3.41494907 69.15007515 4.51725228 68.09350586 8.11352539 C68.02607238 10.19587131 68.00836114 12.28021096 68.03100586 14.36352539 C68.0400293 15.44118164 68.04905273 16.51883789 68.05834961 17.62915039 C68.06995117 18.44899414 68.08155273 19.26883789 68.09350586 20.11352539 C65.19703564 21.5617605 62.78185669 21.11872173 59.55444336 20.99243164 C57.60151367 20.91992188 57.60151367 20.91992188 55.60913086 20.84594727 C54.22891782 20.78942145 52.84870954 20.73277931 51.46850586 20.67602539 C50.08050367 20.62280246 48.69248289 20.57006207 47.30444336 20.51782227 C43.90058445 20.38781377 40.49699469 20.25283656 37.09350586 20.11352539 C37.09572647 21.18871933 37.09794708 22.26391327 37.10023499 23.37168884 C37.12046576 33.4813674 37.13547769 43.59104187 37.14531803 53.70073605 C37.15054702 58.89880654 37.15764496 64.09686075 37.16894531 69.29492188 C37.17977362 74.30694807 37.18578257 79.31895857 37.1883831 84.33099556 C37.19023745 86.24764821 37.19385826 88.16429996 37.19923592 90.08094597 C37.20644561 92.75580611 37.20749683 95.43060053 37.20703125 98.10546875 C37.21062653 98.90603699 37.2142218 99.70660522 37.21792603 100.53143311 C37.20755802 105.99947323 37.20755802 105.99947323 36.09350586 107.11352539 C34.45877704 107.20052881 32.82036531 107.22053602 31.18334961 107.21118164 C30.19399414 107.20795898 29.20463867 107.20473633 28.18530273 107.20141602 C27.14438477 107.19303711 26.1034668 107.1846582 25.03100586 107.17602539 C23.9862207 107.17151367 22.94143555 107.16700195 21.86499023 107.16235352 C19.27443926 107.15052452 16.68400027 107.13404228 14.09350586 107.11352539 C12.52351752 103.97354871 12.96406041 100.62176178 12.97998047 97.17553711 C12.97983444 96.35594513 12.97968842 95.53635315 12.97953796 94.69192505 C12.98023612 91.97566099 12.98802398 89.25946501 12.99584961 86.54321289 C12.99771413 84.66277097 12.99913787 82.78232857 13.00013733 80.90188599 C13.00395979 75.94690617 13.01378778 70.99195556 13.02484131 66.0369873 C13.03506125 60.98307694 13.0396362 55.92916186 13.04467773 50.87524414 C13.05541027 40.95465631 13.0730049 31.03409785 13.09350586 21.11352539 C-1.75649414 20.61852539 -1.75649414 20.61852539 -16.90649414 20.11352539 C-16.90649414 13.84352539 -16.90649414 7.57352539 -16.90649414 1.11352539 C-11.05073404 0.46288538 -5.8107029 -0.00983198 0 0 Z " fill="#041E3C" transform="translate(482.906494140625,336.886474609375)"/>
<path d="M0 0 C7.92 0 15.84 0 24 0 C28.75 9.25 28.75 9.25 30.22167969 12.14550781 C30.81577637 13.28777832 30.81577637 13.28777832 31.421875 14.453125 C31.81987305 15.22817383 32.21787109 16.00322266 32.62792969 16.80175781 C34.1484089 19.23777112 35.90619093 21.04629711 38 23 C38.32798584 22.3387915 38.65597168 21.67758301 38.99389648 20.99633789 C40.47302847 18.01735925 41.95522161 15.03991421 43.4375 12.0625 C43.95376953 11.02158203 44.47003906 9.98066406 45.00195312 8.90820312 C45.74155273 7.42416992 45.74155273 7.42416992 46.49609375 5.91015625 C46.95169678 4.99371338 47.4072998 4.07727051 47.87670898 3.13305664 C49 1 49 1 50 0 C51.78071246 -0.08726223 53.5648314 -0.10699041 55.34765625 -0.09765625 C56.42724609 -0.09443359 57.50683594 -0.09121094 58.61914062 -0.08789062 C60.32360352 -0.07532227 60.32360352 -0.07532227 62.0625 -0.0625 C63.77276367 -0.05573242 63.77276367 -0.05573242 65.51757812 -0.04882812 C68.34510351 -0.03699747 71.1725264 -0.0205141 74 0 C72.73745322 3.33845799 71.30859935 6.35447118 69.4609375 9.40625 C68.96585693 10.22625488 68.47077637 11.04625977 67.96069336 11.89111328 C67.43741455 12.7520459 66.91413574 13.61297852 66.375 14.5 C65.57944702 15.83587158 65.57944702 15.83587158 64.76782227 17.19873047 C62.38438403 21.18181343 59.98959629 25.09947005 57.25390625 28.8515625 C56.8583252 29.41423828 56.46274414 29.97691406 56.05517578 30.55664062 C55.01244315 32.01983732 53.9275794 33.45275409 52.83984375 34.8828125 C51.6459953 39.31393372 53.22533736 41.49159189 55.4128418 45.38623047 C55.936604 46.24877441 56.46036621 47.11131836 57 48 C57.47928955 48.79937988 57.9585791 49.59875977 58.45239258 50.42236328 C59.91587035 52.80325607 61.41922285 55.15372543 62.9375 57.5 C63.99418129 59.15450635 65.05017786 60.80945022 66.10546875 62.46484375 C66.60481934 63.24585449 67.10416992 64.02686523 67.61865234 64.83154297 C69.35611712 67.55903717 71.06613118 70.30159814 72.75 73.0625 C73.42289063 74.16271484 73.42289063 74.16271484 74.109375 75.28515625 C75 77 75 77 75 79 C54.5842462 81.53551277 54.5842462 81.53551277 48.96240234 77.55859375 C45.74923148 73.87970349 43.80202457 69.6498003 41.96337891 65.16015625 C40.35234856 61.54779019 38.17750881 58.29257501 36 55 C35.61666504 55.62044189 35.23333008 56.24088379 34.83837891 56.88012695 C33.10112765 59.69125316 31.36307307 62.50188184 29.625 65.3125 C29.02171875 66.28896484 28.4184375 67.26542969 27.796875 68.27148438 C27.21679688 69.20927734 26.63671875 70.14707031 26.0390625 71.11328125 C25.50490723 71.97735596 24.97075195 72.84143066 24.42041016 73.73168945 C23.3091945 75.50623477 22.16140648 77.25789028 21 79 C18.66162109 79.34057617 18.66162109 79.34057617 15.7734375 79.29296875 C14.7421875 79.28330078 13.7109375 79.27363281 12.6484375 79.26367188 C11.02808594 79.2259668 11.02808594 79.2259668 9.375 79.1875 C8.28703125 79.17396484 7.1990625 79.16042969 6.078125 79.14648438 C3.38492591 79.11104754 0.69270626 79.06164331 -2 79 C-0.55873263 75.06143806 1.3101583 71.66625802 3.51953125 68.10546875 C4.21240234 66.98462891 4.90527344 65.86378906 5.61914062 64.70898438 C6.35018107 63.53510683 7.08130138 62.36127902 7.8125 61.1875 C8.5322581 60.02561173 9.25166226 58.86350414 9.97070312 57.70117188 C10.32172089 57.13488068 10.67273865 56.56858948 11.03439331 55.98513794 C12.06271657 54.32416627 13.08730318 52.66088306 14.11181641 50.99755859 C15.26760459 49.16270376 16.455675 47.34710623 17.69677734 45.56884766 C19.3131293 43.31827037 19.3131293 43.31827037 21 40 C19.98332948 36.57400183 18.30499501 33.63957555 16.4609375 30.59375 C15.9661792 29.77310059 15.4714209 28.95245117 14.96166992 28.10693359 C14.43806885 27.24664551 13.91446777 26.38635742 13.375 25.5 C12.84173096 24.61521973 12.30846191 23.73043945 11.7590332 22.81884766 C9.33918051 18.81234362 6.90012625 14.8206999 4.39453125 10.8671875 C4.01699707 10.26841797 3.63946289 9.66964844 3.25048828 9.05273438 C2.25130213 7.4757001 1.24124609 5.90556779 0.23046875 4.3359375 C-0.17558594 3.56507813 -0.58164062 2.79421875 -1 2 C-0.67 1.34 -0.34 0.68 0 0 Z " fill="#04203D" transform="translate(576,488)"/>
<path d="M0 0 C6.93 0 13.86 0 21 0 C21.86758461 4.33792305 22.12667384 7.86641066 22.12939453 12.25292969 C22.13114685 12.96406418 22.13289917 13.67519867 22.13470459 14.40788269 C22.13908725 16.74590532 22.13619905 19.08385167 22.1328125 21.421875 C22.13348627 23.04901138 22.13445691 24.67614766 22.13571167 26.30328369 C22.13718352 29.70594241 22.13504943 33.10857482 22.13037109 36.51123047 C22.12465593 40.88179984 22.1279673 45.25230805 22.13394356 49.62287521 C22.13754753 52.9787645 22.13641166 56.33463915 22.13381577 59.69052887 C22.13314698 61.30295061 22.13397324 62.91537367 22.13629532 64.52779388 C22.13882112 66.77344826 22.13498315 69.01900163 22.12939453 71.26464844 C22.12859894 72.54418396 22.12780334 73.82371948 22.12698364 75.14202881 C22 78 22 78 21 79 C19.43827255 79.08685603 17.87270656 79.10702219 16.30859375 79.09765625 C15.36435547 79.09443359 14.42011719 79.09121094 13.44726562 79.08789062 C12.45404297 79.07951172 11.46082031 79.07113281 10.4375 79.0625 C9.44041016 79.05798828 8.44332031 79.05347656 7.41601562 79.04882812 C4.94395151 79.03700007 2.47200482 79.02051849 0 79 C-1.4942635 76.01147301 -1.08115401 72.97659794 -1.02172852 69.70458984 C-1.01212097 68.95327286 -1.00251343 68.20195587 -0.99261475 67.4278717 C-0.95957306 64.93879984 -0.91926053 62.44990068 -0.87890625 59.9609375 C-0.85461018 58.23744317 -0.83076637 56.51394241 -0.80735779 54.79043579 C-0.74446579 50.24968146 -0.67541366 45.70904069 -0.60510254 41.168396 C-0.53446525 36.53679586 -0.46962075 31.90511508 -0.40429688 27.2734375 C-0.27521858 18.18220068 -0.13910104 9.091089 0 0 Z " fill="#011C3A" transform="translate(662,488)"/>
<path d="M0 0 C0.33 0 0.66 0 1 0 C1 337.92 1 675.84 1 1024 C0.67 1024 0.34 1024 0 1024 C0 686.08 0 348.16 0 0 Z " fill="#A2A4A6" transform="translate(0,0)"/>
<path d="M0 0 C3.12740787 2.0612461 4.33498308 3.35356975 5.75 6.8125 C6.28575611 11.81289033 5.83910768 14.80810116 2.75 18.8125 C-0.84867229 21.21161486 -3.99111326 21.87501577 -8.25 21.8125 C-11.81176341 20.70309828 -14.33486802 19.58003005 -17.1875 17.1875 C-18.88008052 13.40408473 -19.01571447 9.87289418 -18.25 5.8125 C-14.26393121 -1.54874582 -7.58065004 -2.7698529 0 0 Z " fill="#05203E" transform="translate(679.25,458.1875)"/>
<path d="M0 0 C0.66 0 1.32 0 2 0 C2 34.32 2 68.64 2 104 C7.94 104 13.88 104 20 104 C19.98952637 102.4958252 19.97905273 100.99165039 19.96826172 99.44189453 C19.93214341 93.87713997 19.90912934 88.31239582 19.89013672 82.74755859 C19.88006046 80.33608256 19.86639919 77.92461878 19.84912109 75.51318359 C19.8249441 72.05302915 19.81353331 68.5930358 19.8046875 65.1328125 C19.79436493 64.04944611 19.78404236 62.96607971 19.77340698 61.84988403 C19.77325592 60.8489975 19.77310486 59.84811096 19.77294922 58.81689453 C19.768508 57.93309113 19.76406677 57.04928772 19.75949097 56.13870239 C20 54 20 54 22 52 C22 69.82 22 87.64 22 106 C14.74 106 7.48 106 0 106 C0 71.02 0 36.04 0 0 Z " fill="#26354D" transform="translate(563,338)"/>
<path d="M0 0 C6.6 0 13.2 0 20 0 C20 4.62 20 9.24 20 14 C19.67 14 19.34 14 19 14 C19 9.71 19 5.42 19 1 C13.39 1 7.78 1 2 1 C2 25.75 2 50.5 2 76 C10.415 75.505 10.415 75.505 19 75 C19.01981934 73.4958252 19.03963867 71.99165039 19.06005859 70.44189453 C19.13596045 64.87694155 19.22470117 59.31225535 19.31738281 53.74755859 C19.35573647 51.33615372 19.3905779 48.92469038 19.421875 46.51318359 C19.46738703 43.05284687 19.52540404 39.59291492 19.5859375 36.1328125 C19.60326431 34.50776291 19.60326431 34.50776291 19.62094116 32.84988403 C19.64081085 31.8489975 19.66068054 30.84811096 19.68115234 29.81689453 C19.69447601 28.93309113 19.70779968 28.04928772 19.7215271 27.13870239 C20 25 20 25 22 23 C22 41.15 22 59.3 22 78 C14.74 78 7.48 78 0 78 C0 52.26 0 26.52 0 0 Z " fill="#1E2D46" transform="translate(787,489)"/>
<path d="M0 0 C6.6 0.33 13.2 0.66 20 1 C20 14.53 20 28.06 20 42 C19.67 42 19.34 42 19 42 C19 28.8 19 15.6 19 2 C18.01 2.33 17.02 2.66 16 3 C11.38 3 6.76 3 2 3 C1.67 36.33 1.34 69.66 1 104 C6.94 104 12.88 104 19 104 C19 102.02 19 100.04 19 98 C19.33 98 19.66 98 20 98 C20 100.31 20 102.62 20 105 C13.4 105 6.8 105 0 105 C0 70.35 0 35.7 0 0 Z " fill="#000B2B" transform="translate(664,582)"/>
<path d="M0 0 C0.33 0 0.66 0 1 0 C1 18.48 1 36.96 1 56 C-5.93 56 -12.86 56 -20 56 C-20 38.18 -20 20.36 -20 2 C-19.67 2 -19.34 2 -19 2 C-19 19.16 -19 36.32 -19 54 C-13.06 54 -7.12 54 -1 54 C-1.00785522 51.70615356 -1.00785522 51.70615356 -1.01586914 49.3659668 C-1.03394379 43.70239851 -1.04544108 38.03883278 -1.05493164 32.37524414 C-1.0599662 29.92211478 -1.06679424 27.46898843 -1.07543945 25.01586914 C-1.08754332 21.4936448 -1.09323703 17.97146006 -1.09765625 14.44921875 C-1.10281754 13.34913986 -1.10797882 12.24906097 -1.11329651 11.11564636 C-1.11337204 10.09481461 -1.11344757 9.07398285 -1.11352539 8.0222168 C-1.115746 7.12286911 -1.11796661 6.22352142 -1.12025452 5.29692078 C-1 3 -1 3 0 0 Z " fill="#19253F" transform="translate(854,511)"/>
<path d="M0 0 C0.66 0.99 1.32 1.98 2 3 C-1.37498736 6.42431819 -4.75641049 9.84209712 -8.14404297 13.25390625 C-9.29624094 14.41617986 -10.44663992 15.58023967 -11.59521484 16.74609375 C-13.24370414 18.41876279 -14.89849505 20.08496235 -16.5546875 21.75 C-17.06933563 22.2749707 -17.58398376 22.79994141 -18.11422729 23.34082031 C-19.37208852 24.59907712 -20.68187263 25.80502498 -22 27 C-22.66 27 -23.32 27 -24 27 C-24.2475 27.598125 -24.495 28.19625 -24.75 28.8125 C-26.18072525 31.31626919 -27.5691582 32.48072388 -30 34 C-30.66 34 -31.32 34 -32 34 C-32.14115234 34.87398437 -32.14115234 34.87398437 -32.28515625 35.765625 C-33.15962379 38.49893336 -34.39057587 39.75839814 -36.4375 41.75 C-37.05496094 42.36359375 -37.67242187 42.9771875 -38.30859375 43.609375 C-40 45 -40 45 -42 45 C-42.268125 45.598125 -42.53625 46.19625 -42.8125 46.8125 C-44.02493496 49.04593283 -44.94652273 50.49938199 -47 52 C-49.1015625 51.57421875 -49.1015625 51.57421875 -51 51 C-48.54976242 48.49195282 -46.08852402 45.9949924 -43.625 43.5 C-42.57699219 42.42685547 -42.57699219 42.42685547 -41.5078125 41.33203125 C-40.8375 40.65527344 -40.1671875 39.97851562 -39.4765625 39.28125 C-38.85861816 38.65283203 -38.24067383 38.02441406 -37.60400391 37.37695312 C-36 36 -36 36 -34 36 C-33.73574219 35.4112207 -33.47148437 34.82244141 -33.19921875 34.21582031 C-31.95631056 31.91927416 -30.64993519 30.39166834 -28.8125 28.546875 C-27.88824219 27.61875 -27.88824219 27.61875 -26.9453125 26.671875 C-26.30335938 26.03765625 -25.66140625 25.4034375 -25 24.75 C-24.35804688 24.1003125 -23.71609375 23.450625 -23.0546875 22.78125 C-22.43851562 22.16765625 -21.82234375 21.5540625 -21.1875 20.921875 C-20.62417969 20.36081055 -20.06085938 19.79974609 -19.48046875 19.22167969 C-18 18 -18 18 -16 18 C-15.77054687 17.443125 -15.54109375 16.88625 -15.3046875 16.3125 C-13.64306841 13.36735479 -11.54629099 11.35662744 -9.125 9 C-7.82949219 7.7315625 -7.82949219 7.7315625 -6.5078125 6.4375 C-5.68023437 5.633125 -4.85265625 4.82875 -4 4 C-2.66442011 2.66891701 -1.33023617 1.33642332 0 0 Z " fill="#13263C" transform="translate(376,520)"/>
<path d="M0 0 C-1.58561638 3.85593074 -4.06509954 6.33216291 -7 9.25 C-7.886875 10.14203125 -8.77375 11.0340625 -9.6875 11.953125 C-12 14 -12 14 -14 14 C-14.23847656 14.5671875 -14.47695312 15.134375 -14.72265625 15.71875 C-16.26968523 18.48163967 -18.15418215 20.31041441 -20.4375 22.5 C-22.71199133 24.68830797 -24.80188771 26.72777041 -26.66015625 29.28125 C-27.32337891 30.13203125 -27.32337891 30.13203125 -28 31 C-28.66 31 -29.32 31 -30 31 C-30.99 33.475 -30.99 33.475 -32 36 C-32.66 36 -33.32 36 -34 36 C-32.69798318 30.97793511 -30.48877553 27.83938818 -26.9375 24.1875 C-26.16805054 23.37792847 -26.16805054 23.37792847 -25.38305664 22.55200195 C-23.60083171 20.68925403 -21.80101174 18.8445846 -20 17 C-19.28070313 16.25492187 -18.56140625 15.50984375 -17.8203125 14.7421875 C-15.53636857 12.38029327 -13.23953281 10.03175844 -10.9375 7.6875 C-10.19943115 6.92783936 -9.4613623 6.16817871 -8.70092773 5.38549805 C-8.00427002 4.68465088 -7.3076123 3.98380371 -6.58984375 3.26171875 C-5.96972412 2.63225342 -5.34960449 2.00278809 -4.71069336 1.35424805 C-3 0 -3 0 0 0 Z " fill="#0C223E" transform="translate(97,457)"/>
<path d="M0 0 C0.20638953 26.17654243 0.20638953 26.17654243 -1 36 C-1.33 36 -1.66 36 -2 36 C-2 24.78 -2 13.56 -2 2 C-8.27 2 -14.54 2 -21 2 C-21 15.53 -21 29.06 -21 43 C-21.33 43 -21.66 43 -22 43 C-22 28.81 -22 14.62 -22 0 C-2 -1 -2 -1 0 0 Z " fill="#011230" transform="translate(559,583)"/>
<path d="M0 0 C0 3 0 3 -1.3125 4.375 C-1.869375 4.91125 -2.42625 5.4475 -3 6 C-3.45375 6.78375 -3.9075 7.5675 -4.375 8.375 C-6.24880459 11.40191511 -8.45382844 13.51271541 -11 16 C-11.79317627 16.79317627 -12.58635254 17.58635254 -13.40356445 18.40356445 C-19.26904297 24.26904297 -25.13452148 30.13452148 -31 36 C-31.99 35.34 -32.98 34.68 -34 34 C-22.78 22.78 -11.56 11.56 0 0 Z " fill="#10253D" transform="translate(319,577)"/>
<path d="M0 0 C0 5.59809768 -3.00037917 8.25617492 -6.83203125 12.09765625 C-7.30565598 12.57319443 -7.7792807 13.0487326 -8.26725769 13.53868103 C-9.26759267 14.54037308 -10.27044214 15.53955959 -11.27563477 16.53637695 C-12.80394571 18.0540055 -14.32132809 19.58196967 -15.83789062 21.11132812 C-16.8144638 22.08657916 -17.79165748 23.06120931 -18.76953125 24.03515625 C-19.65229736 24.9156665 -20.53506348 25.79617676 -21.44458008 26.70336914 C-23.86697569 28.88044715 -26.07738163 30.56647944 -29 32 C-29.66 31.67 -30.32 31.34 -31 31 C-20.66666667 20.66666667 -10.33333333 10.33333333 0 0 Z " fill="#10263F" transform="translate(280,616)"/>
<path d="M0 0 C0 0.99 0 1.98 0 3 C-2.5 5.1875 -2.5 5.1875 -5 7 C-3.70700306 4.11562221 -2.34058637 2.12780579 0 0 Z M-7 7 C-6.34 7.33 -5.68 7.66 -5 8 C-7.98798976 12.82900056 -11.40162183 16.70697102 -15.4375 20.6875 C-15.99759766 21.25533203 -16.55769531 21.82316406 -17.13476562 22.40820312 C-24.76216295 30 -24.76216295 30 -30 30 C-22.33333333 22.33333333 -14.66666667 14.66666667 -7 7 Z " fill="#112943" transform="translate(215,336)"/>
<path d="M0 0 C-5.30691427 2.63611428 -9.29920486 3.4269253 -15.1875 3.25 C-16.23454102 3.24226563 -16.23454102 3.24226563 -17.30273438 3.234375 C-20.66178276 3.1832382 -23.78807371 3.02914434 -27 2 C-27 1.34 -27 0.68 -27 0 C-25.13794922 0.01740234 -25.13794922 0.01740234 -23.23828125 0.03515625 C-21.59635568 0.04453868 -19.95442847 0.0536384 -18.3125 0.0625 C-17.49587891 0.07087891 -16.67925781 0.07925781 -15.83789062 0.08789062 C-10.56507636 0.10923805 -4.97918837 -1.65972946 0 0 Z " fill="#F0B333" transform="translate(415,489)"/>
<path d="M0 0 C0.33 0.66 0.66 1.32 1 2 C1.66 2 2.32 2 3 2 C3 2.99 3 3.98 3 5 C-4.92 5 -12.84 5 -21 5 C-20.67 4.01 -20.34 3.02 -20 2 C-13.4 2.33 -6.8 2.66 0 3 C0 2.01 0 1.02 0 0 Z " fill="#1F2E48" transform="translate(565,562)"/>
<path d="M0 0 C0.99 0.33 1.98 0.66 3 1 C-2.94 6.94 -8.88 12.88 -15 19 C-15.33 18.01 -15.66 17.02 -16 16 C-10.72 10.72 -5.44 5.44 0 0 Z " fill="#102640" transform="translate(240,364)"/>
<path d="M0 0 C1.91015625 1.1015625 1.91015625 1.1015625 4.66015625 3.1015625 C4.66015625 4.0915625 4.66015625 5.0815625 4.66015625 6.1015625 C3.73203125 5.4415625 2.80390625 4.7815625 1.84765625 4.1015625 C-4.05734602 0.71698803 -10.65328533 1.37300428 -17.02734375 3.1015625 C-17.79046875 3.4315625 -18.55359375 3.7615625 -19.33984375 4.1015625 C-18.33984375 1.1015625 -18.33984375 1.1015625 -16.640625 -0.0625 C-11.52126123 -1.92250653 -5.08749101 -1.95346065 0 0 Z " fill="#1A2B46" transform="translate(743.33984375,503.8984375)"/>
<path d="M0 0 C6.93 0 13.86 0 21 0 C22.59725657 7.98628286 22.45616238 15.9911069 21 24 C20.67 24 20.34 24 20 24 C19.505 12.615 19.505 12.615 19 1 C12.73 1 6.46 1 0 1 C0 0.67 0 0.34 0 0 Z " fill="#132C45" transform="translate(662,488)"/>
<path d="M0 0 C7.59 0 15.18 0 23 0 C23.33 0.99 23.66 1.98 24 3 C16.08 3 8.16 3 0 3 C0 2.01 0 1.02 0 0 Z " fill="#1E2E47" transform="translate(627,564)"/>
<path d="M0 0 C1.00023193 0.00523682 2.00046387 0.01047363 3.03100586 0.01586914 C4.1105957 0.0190918 5.19018555 0.02231445 6.30249023 0.02563477 C8.00695312 0.03820312 8.00695312 0.03820312 9.74584961 0.05102539 C11.45611328 0.05779297 11.45611328 0.05779297 13.20092773 0.06469727 C16.02845312 0.07652792 18.85587601 0.09301129 21.68334961 0.11352539 C21.35334961 1.10352539 21.02334961 2.09352539 20.68334961 3.11352539 C17.05841627 3.17140323 13.43360104 3.20707959 9.80834961 3.23852539 C8.77581055 3.2552832 7.74327148 3.27204102 6.67944336 3.28930664 C5.69331055 3.29575195 4.70717773 3.30219727 3.69116211 3.30883789 C2.32435303 3.32454834 2.32435303 3.32454834 0.92993164 3.34057617 C-1.31665039 3.11352539 -1.31665039 3.11352539 -3.31665039 1.11352539 C-2.31665039 0.11352539 -2.31665039 0.11352539 0 0 Z " fill="#182B45" transform="translate(578.316650390625,487.886474609375)"/>
<path d="M0 0 C7.92 0 15.84 0 24 0 C24 0.66 24 1.32 24 2 C21.05868109 2.98043964 19.17498335 3.11621202 16.11328125 3.09765625 C15.17548828 3.09443359 14.23769531 3.09121094 13.27148438 3.08789062 C12.29501953 3.07951172 11.31855469 3.07113281 10.3125 3.0625 C8.83040039 3.05573242 8.83040039 3.05573242 7.31835938 3.04882812 C4.87884526 3.03704303 2.43945311 3.02059011 0 3 C0 2.01 0 1.02 0 0 Z " fill="#1A2C46" transform="translate(626,488)"/>
<path d="M0 0 C1 3 1 3 0.125 4.8125 C-0.24625 5.534375 -0.6175 6.25625 -1 7 C-1.99338385 11.63807495 -2.12198288 16.1529743 -2.0625 20.875 C-2.05573242 21.90753906 -2.05573242 21.90753906 -2.04882812 22.9609375 C-2.03716336 24.64066335 -2.01923271 26.32034375 -2 28 C-5.68316177 22.47525734 -5.67754434 14.58411137 -4.4609375 8.1484375 C-3.36942527 4.76364705 -2.53616243 2.53616243 0 0 Z " fill="#24364E" transform="translate(688,630)"/>
<path d="M0 0 C0 0.66 0 1.32 0 2 C-0.60328125 2.08636719 -1.2065625 2.17273438 -1.828125 2.26171875 C-5.83338584 2.96586945 -8.38837157 3.46482512 -11.5 6.1875 C-13.26204807 9.49134012 -13.70878909 12.28706086 -14 16 C-14.33 16 -14.66 16 -15 16 C-15.47676175 11.23238247 -15.83824 7.36767485 -12.6875 3.5 C-8.55243012 -0.34657663 -5.46246829 -0.10306544 0 0 Z " fill="#1D3149" transform="translate(676,457)"/>
<path d="M0 0 C5.94 0.33 11.88 0.66 18 1 C16 3 16 3 12.7421875 3.1953125 C11.46601562 3.17210937 10.18984375 3.14890625 8.875 3.125 C6.95300781 3.09792969 6.95300781 3.09792969 4.9921875 3.0703125 C3.51105469 3.03550781 3.51105469 3.03550781 2 3 C1.67 4.32 1.34 5.64 1 7 C0.67 4.69 0.34 2.38 0 0 Z " fill="#001634" transform="translate(664,582)"/>
<path d="M0 0 C0 3.29223784 -0.50518132 5.08510357 -2 8 C-3.33333333 8.66666667 -4.66666667 9.33333333 -6 10 C-7.28254644 12.53770003 -7.28254644 12.53770003 -8 15 C-8.66 15 -9.32 15 -10 15 C-8.67494706 8.5403669 -4.40590065 4.61082626 0 0 Z " fill="#122641" transform="translate(73,478)"/>
<path d="M0 0 C0.99 0.33 1.98 0.66 3 1 C-0.96 4.96 -4.92 8.92 -9 13 C-9.33 12.01 -9.66 11.02 -10 10 C-6.7 6.7 -3.4 3.4 0 0 Z " fill="#132B44" transform="translate(120,484)"/>
<path d="M0 0 C2.53257899 0.09599519 5.03092392 0.13937035 7.5625 0.125 C8.24763672 0.12886719 8.93277344 0.13273437 9.63867188 0.13671875 C13.44562188 0.18722618 13.44562188 0.18722618 17 -1 C17.99 -0.34 18.98 0.32 20 1 C10.51332023 3.04861856 2.51176812 2.85386785 -7 1 C-3.375 -1.125 -3.375 -1.125 0 0 Z " fill="#243951" transform="translate(681,443)"/>
<path d="M0 0 C0.66 0.66 1.32 1.32 2 2 C-1.63 5.63 -5.26 9.26 -9 13 C-9.66 12.34 -10.32 11.68 -11 11 C-7.37 7.37 -3.74 3.74 0 0 Z " fill="#142942" transform="translate(180,424)"/>
<path d="M0 0 C2 3 2 3 2 5 C1.34 5 0.68 5 0 5 C0.08378906 5.60585938 0.16757812 6.21171875 0.25390625 6.8359375 C1.01157955 13.06995836 0.85947067 18.78536596 0 25 C-0.33 25 -0.66 25 -1 25 C-1.94282543 16.27249433 -2.11222766 8.55364922 0 0 Z " fill="#223B53" transform="translate(650,390)"/>
<path d="M0 0 C5.61 0 11.22 0 17 0 C12.44594595 3.41554054 12.44594595 3.41554054 8.5 3.375 C7.7471875 3.38273438 6.994375 3.39046875 6.21875 3.3984375 C4 3 4 3 0 0 Z " fill="#0F213C" transform="translate(236,689)"/>
<path d="M0 0 C0 3.66184524 -0.919642 5.02806 -3 8 C-5.1875 9.8125 -5.1875 9.8125 -7 11 C-7.66 10.34 -8.32 9.68 -9 9 C-6.03 6.03 -3.06 3.06 0 0 Z " fill="#102944" transform="translate(174,377)"/>
<path d="M0 0 C1.1484375 3.6875 1.1484375 3.6875 -0.1875 6.5 C-1.95012332 8.93120457 -3.80524341 10.95660593 -6 13 C-6 9.32965255 -4.9247108 7.9000569 -3 4.8125 C-2.443125 3.91144531 -1.88625 3.01039063 -1.3125 2.08203125 C-0.6628125 1.05142578 -0.6628125 1.05142578 0 0 Z " fill="#1A2C45" transform="translate(589,541)"/>
<path d="M0 0 C1.32 0.33 2.64 0.66 4 1 C1.36 3.64 -1.28 6.28 -4 9 C-4.33 8.01 -4.66 7.02 -5 6 C-3.59554165 3.7363436 -1.8032087 1.9791315 0 0 Z " fill="#122641" transform="translate(858,492)"/>
<path d="M0 0 C-0.33 0.66 -0.66 1.32 -1 2 C-3.1796875 2.51953125 -3.1796875 2.51953125 -5.875 2.8125 C-7.20144531 2.97685547 -7.20144531 2.97685547 -8.5546875 3.14453125 C-11 3 -11 3 -12.8203125 1.51171875 C-13.20960938 1.01285156 -13.59890625 0.51398437 -14 0 C-12.948125 0.020625 -11.89625 0.04125 -10.8125 0.0625 C-0.22222222 -0.11111111 -0.22222222 -0.11111111 0 0 Z " fill="#1B2F49" transform="translate(618,669)"/>
<path d="M0 0 C7.48291572 6.15034169 7.48291572 6.15034169 10 10 C6.4628562 9.43867066 5.00738321 8.30442253 2.75 5.5625 C1.96882812 4.63630859 1.96882812 4.63630859 1.171875 3.69140625 C0 2 0 2 0 0 Z " fill="#1C2F43" transform="translate(183,590)"/>
<path d="M0 0 C0 3 0 3 -1.3125 4.375 C-1.869375 4.91125 -2.42625 5.4475 -3 6 C-4.03357147 7.64605826 -5.04060332 9.30963442 -6 11 C-6.99 10.34 -7.98 9.68 -9 9 C-6.03 6.03 -3.06 3.06 0 0 Z " fill="#182C41" transform="translate(319,577)"/>
<path d="M0 0 C0.99 0.33 1.98 0.66 3 1 C2.09972412 2.03531726 1.17906965 3.05294165 0.25 4.0625 C-0.51570312 4.91521484 -0.51570312 4.91521484 -1.296875 5.78515625 C-3 7 -3 7 -5.203125 6.68359375 C-5.79609375 6.45800781 -6.3890625 6.23242188 -7 6 C-5.90716423 4.96704564 -4.80029421 3.94892165 -3.6875 2.9375 C-3.07261719 2.36902344 -2.45773438 1.80054688 -1.82421875 1.21484375 C-0.92123047 0.61349609 -0.92123047 0.61349609 0 0 Z " fill="#0E2541" transform="translate(223,329)"/>
<path d="M0 0 C1.12894876 0.93274109 2.25300876 1.87140122 3.375 2.8125 C4.00148438 3.33457031 4.62796875 3.85664062 5.2734375 4.39453125 C7 6 7 6 9 9 C6 9 6 9 4.39453125 7.79296875 C3.87246094 7.26316406 3.35039063 6.73335937 2.8125 6.1875 C2.01779297 5.40439453 2.01779297 5.40439453 1.20703125 4.60546875 C0 3 0 3 0 0 Z " fill="#132943" transform="translate(110,517)"/>
<path d="M0 0 C0.99 0.33 1.98 0.66 3 1 C0.69 3.31 -1.62 5.62 -4 8 C-4.66 7.34 -5.32 6.68 -6 6 C-4.11192137 3.30274481 -2.80175356 1.86783571 0 0 Z " fill="#132A42" transform="translate(197,407)"/>
<path d="M0 0 C0.66 0.99 1.32 1.98 2 3 C1.5390625 5.04296875 1.5390625 5.04296875 0.625 7.1875 C0.32851563 7.90292969 0.03203125 8.61835937 -0.2734375 9.35546875 C-0.51320313 9.89816406 -0.75296875 10.44085937 -1 11 C-1.66 11 -2.32 11 -3 11 C-2.69078116 9.54096742 -2.37751201 8.08279278 -2.0625 6.625 C-1.88847656 5.81289063 -1.71445312 5.00078125 -1.53515625 4.1640625 C-1 2 -1 2 0 0 Z " fill="#1E2F47" transform="translate(472,551)"/>
<path d="M0 0 C2.3129482 2.3129482 2.49580975 3.47904875 3.125 6.625 C3.29257812 7.44226563 3.46015625 8.25953125 3.6328125 9.1015625 C3.81457031 10.04128906 3.81457031 10.04128906 4 11 C3.34 11 2.68 11 2 11 C-0.32590854 7.36576791 -0.16265833 4.22911669 0 0 Z " fill="#1F324A" transform="translate(537,478)"/>
<path d="M0 0 C0.99 0.33 1.98 0.66 3 1 C3.6875 4.3125 3.6875 4.3125 4 8 C2.5625 9.9375 2.5625 9.9375 1 11 C1.020625 9.9275 1.04125 8.855 1.0625 7.75 C1.0142016 4.85209576 0.86844115 2.71387859 0 0 Z " fill="#273042" transform="translate(312,377)"/>
<path d="M0 0 C0.99 0.495 0.99 0.495 2 1 C2.44921875 2.92578125 2.44921875 2.92578125 2.6875 5.3125 C2.77386719 6.09238281 2.86023438 6.87226563 2.94921875 7.67578125 C2.99984424 9.99287105 2.67173402 11.79287394 2 14 C1.34 14 0.68 14 0 14 C0 9.38 0 4.76 0 0 Z " fill="#14223C" transform="translate(466,343)"/>
<path d="M0 0 C1.17539996 0.92652701 2.34010577 1.86663387 3.5 2.8125 C4.1496875 3.33457031 4.799375 3.85664062 5.46875 4.39453125 C7 6 7 6 7 9 C5.82460004 8.07347299 4.65989423 7.13336613 3.5 6.1875 C2.52546875 5.40439453 2.52546875 5.40439453 1.53125 4.60546875 C0 3 0 3 0 0 Z " fill="#142A44" transform="translate(143,550)"/>
<path d="M0 0 C0.99 0.33 1.98 0.66 3 1 C0.69 3.31 -1.62 5.62 -4 8 C-4.33 7.01 -4.66 6.02 -5 5 C-3.35 3.35 -1.7 1.7 0 0 Z " fill="#182E47" transform="translate(365,583)"/>
<path d="M0 0 C0.66 0 1.32 0 2 0 C1.71682074 1.60568666 1.42312209 3.20952047 1.125 4.8125 C0.96257813 5.70582031 0.80015625 6.59914063 0.6328125 7.51953125 C0 10 0 10 -2 13 C-1.85915204 11.20793453 -1.71216299 9.41635083 -1.5625 7.625 C-1.48128906 6.62726563 -1.40007813 5.62953125 -1.31640625 4.6015625 C-1 2 -1 2 0 0 Z " fill="#253A51" transform="translate(515,485)"/>
<path d="M0 0 C0.99 0.33 1.98 0.66 3 1 C0.69 3.31 -1.62 5.62 -4 8 C-4.33 7.01 -4.66 6.02 -5 5 C-3.35 3.35 -1.7 1.7 0 0 Z " fill="#122942" transform="translate(221,383)"/>
<path d="M0 0 C2.125 0.375 2.125 0.375 4 1 C2.37660195 2.70884005 0.70680947 4.37446717 -1 6 C-1.66 6 -2.32 6 -3 6 C-2.42655063 3.13275314 -2.1385485 2.1385485 0 0 Z " fill="#0E2440" transform="translate(592,368)"/>
<path d="M0 0 C3.36720387 1.39332574 4.9859524 2.9789286 7 6 C6.34 6.66 5.68 7.32 5 8 C4.38125 7.21625 3.7625 6.4325 3.125 5.625 C1.10141339 3.03162353 1.10141339 3.03162353 -1 1 C-0.67 0.67 -0.34 0.34 0 0 Z " fill="#162940" transform="translate(209,617)"/>
<path d="M0 0 C2.31 1.98 4.62 3.96 7 6 C6.34 6.66 5.68 7.32 5 8 C2.5 5.6875 2.5 5.6875 0 3 C0 2.01 0 1.02 0 0 Z " fill="#182B44" transform="translate(163,570)"/>
<path d="M0 0 C1.13643966 3.40931897 0.86747764 4.00335456 -0.4375 7.1875 C-0.86869141 8.26064453 -0.86869141 8.26064453 -1.30859375 9.35546875 C-1.53675781 9.89816406 -1.76492188 10.44085937 -2 11 C-2.33 11 -2.66 11 -3 11 C-3.36923077 4.6 -3.36923077 4.6 -1.5 1.5625 C-1.005 1.046875 -0.51 0.53125 0 0 Z " fill="#1E314A" transform="translate(722,508)"/>
<path d="M0 0 C0.99 0.33 1.98 0.66 3 1 C-0.465 3.97 -0.465 3.97 -4 7 C-4 4 -4 4 -2 1.8125 C-1.34 1.214375 -0.68 0.61625 0 0 Z " fill="#152A43" transform="translate(133,471)"/>
<path d="M0 0 C3.25543229 0.34879632 4.01873107 1.02133261 6.25 3.5625 C6.8275 4.366875 7.405 5.17125 8 6 C5 6 5 6 3.61328125 4.6875 C2.40885417 3.125 1.20442708 1.5625 0 0 Z " fill="#122942" transform="translate(271,390)"/>
<path d="M0 0 C0.99 0.33 1.98 0.66 3 1 C-0.465 3.97 -0.465 3.97 -4 7 C-3.04065919 3.16263678 -2.76390737 2.40339772 0 0 Z " fill="#162C45" transform="translate(186,418)"/>
<path d="M0 0 C0.99 0 1.98 0 3 0 C1.95125002 2.62187494 1.35068687 3.79371361 -1.125 5.25 C-1.74375 5.4975 -2.3625 5.745 -3 6 C-1.125 1.125 -1.125 1.125 0 0 Z " fill="#182C46" transform="translate(705,499)"/>
<path d="M0 0 C0.33 0.66 0.66 1.32 1 2 C0.06553465 4.03144641 -0.93224776 6.03533587 -2 8 C-2.66 8 -3.32 8 -4 8 C-2.25 2.25 -2.25 2.25 0 0 Z " fill="#1D334A" transform="translate(67,485)"/>
<path d="M0 0 C0.99 0.33 1.98 0.66 3 1 C2.25 5.75 2.25 5.75 0 8 C0 5.36 0 2.72 0 0 Z " fill="#162A43" transform="translate(718,422)"/>
<path d="M0 0 C0.66 0.66 1.32 1.32 2 2 C-0.97 4.475 -0.97 4.475 -4 7 C-4 4 -4 4 -2 1.8125 C-1.34 1.214375 -0.68 0.61625 0 0 Z " fill="#142A44" transform="translate(204,400)"/>
<path d="" fill="#123350" transform="translate(0,0)"/>
<path d="" fill="#11354E" transform="translate(0,0)"/>
<path d="" fill="#14344F" transform="translate(0,0)"/>
<path d="" fill="#0F344F" transform="translate(0,0)"/>
<path d="" fill="#0F324D" transform="translate(0,0)"/>
<path d="" fill="#0A2D4C" transform="translate(0,0)"/>
<path d="" fill="#032848" transform="translate(0,0)"/>
<path d="" fill="#002846" transform="translate(0,0)"/>
<path d="" fill="#092F4D" transform="translate(0,0)"/>
<path d="" fill="#0B314D" transform="translate(0,0)"/>
<path d="" fill="#042947" transform="translate(0,0)"/>
<path d="" fill="#042B49" transform="translate(0,0)"/>
<path d="" fill="#082D4D" transform="translate(0,0)"/>
<path d="" fill="#052D4D" transform="translate(0,0)"/>
<path d="" fill="#062C4A" transform="translate(0,0)"/>
<path d="" fill="#0F334C" transform="translate(0,0)"/>
<path d="" fill="#103251" transform="translate(0,0)"/>
<path d="" fill="#0D314F" transform="translate(0,0)"/>
<path d="" fill="#0F314C" transform="translate(0,0)"/>
<path d="" fill="#072B4C" transform="translate(0,0)"/>
<path d="" fill="#072C4B" transform="translate(0,0)"/>
<path d="" fill="#082C4C" transform="translate(0,0)"/>
<path d="" fill="#0E3049" transform="translate(0,0)"/>
<path d="" fill="#143450" transform="translate(0,0)"/>
<path d="" fill="#052949" transform="translate(0,0)"/>
<path d="" fill="#082A4C" transform="translate(0,0)"/>
<path d="" fill="#072B4A" transform="translate(0,0)"/>
<path d="" fill="#0E3450" transform="translate(0,0)"/>
<path d="" fill="#082D4A" transform="translate(0,0)"/>
<path d="" fill="#052C4B" transform="translate(0,0)"/>
<path d="" fill="#A4A4A4" transform="translate(0,0)"/>
</svg>
